HIERARCHY
ROOT hips
{
	OFFSET -0.003675 0.299928 -0.021708
	CHANNELS 6 Xposition Yposition Zposition Xrotation Yrotation Zrotation
	JOINT LowerBack
	{
		OFFSET 0.000919 0.177588 0.009275
		CHANNELS 3 Xrotation Yrotation Zrotation
		JOINT spine
		{
			OFFSET 0.000919 0.177588 0.009275
			CHANNELS 3 Xrotation Yrotation Zrotation
			JOINT chest
			{
				OFFSET 0.000456 0.100015 0.004638
				CHANNELS 3 Xrotation Yrotation Zrotation
				JOINT neck
				{
					OFFSET 0.000456 0.100015 0.004638
					CHANNELS 3 Xrotation Yrotation Zrotation
					JOINT head
					{
						OFFSET 0.000924 0.155147 0.009274
						CHANNELS 6 Xposition Yposition Zposition Xrotation Yrotation Zrotation
						End Site
						{
							OFFSET 0.000000 0.153400 0.000000
						}
					}
				}
				JOINT shoulder.L
				{
					OFFSET 0.019937 0.078966 0.057518
					CHANNELS 6 Xposition Yposition Zposition Yrotation Xrotation Zrotation
					JOINT upper_arm.L
					{
						OFFSET 0.177024 -0.020465 -0.095062
						CHANNELS 6 Xposition Yposition Zposition Xrotation Yrotation Zrotation
						JOINT forearm.L
						{
							OFFSET 0.247100 -0.135500 -0.061800
							CHANNELS 3 Xrotation Yrotation Zrotation
							JOINT hand.L
							{
								OFFSET 0.217000 -0.143000 0.039300
								CHANNELS 3 Xrotation Yrotation Zrotation
								JOINT palm.01.L
								{
									OFFSET 0.021770 -0.038291 0.012954
									CHANNELS 6 Xposition Yposition Zposition Yrotation Xrotation Zrotation
									JOINT f_index.01.L
									{
										OFFSET 0.053215 -0.044137 0.008236
										CHANNELS 3 Xrotation Yrotation Zrotation
										JOINT f_index.02.L
										{
											OFFSET 0.036108 -0.024723 -0.010656
											CHANNELS 3 Xrotation Yrotation Zrotation
											JOINT f_index.03.L
											{
												OFFSET 0.021342 -0.014948 -0.010846
												CHANNELS 3 Xrotation Yrotation Zrotation
												End Site
												{
													OFFSET 0.015600 -0.009860 -0.013421
												}
											}
										}
									}
									JOINT thumb.01.L
									{
										OFFSET -0.009090 -0.002348 -0.024223
										CHANNELS 6 Xposition Yposition Zposition Xrotation Yrotation Zrotation
										JOINT thumb.02.L
										{
											OFFSET 0.019713 -0.035076 -0.011120
											CHANNELS 3 Xrotation Yrotation Zrotation
											JOINT thumb.03.L
											{
												OFFSET 0.024877 -0.021748 -0.005176
												CHANNELS 3 Xrotation Yrotation Zrotation
												End Site
												{
													OFFSET 0.016125 -0.013029 -0.001569
												}
											}
										}
									}
								}
								JOINT palm.02.L
								{
									OFFSET 0.032823 -0.025104 0.012281
									CHANNELS 6 Xposition Yposition Zposition Yrotation Xrotation Zrotation
									JOINT f_middle.01.L
									{
										OFFSET 0.055723 -0.038469 0.008037
										CHANNELS 3 Xrotation Yrotation Zrotation
										JOINT f_middle.02.L
										{
											OFFSET 0.038167 -0.027473 -0.015582
											CHANNELS 3 Xrotation Yrotation Zrotation
											JOINT f_middle.03.L
											{
												OFFSET 0.021707 -0.016587 -0.017037
												CHANNELS 3 Xrotation Yrotation Zrotation
												End Site
												{
													OFFSET 0.014112 -0.010584 -0.014294
												}
											}
										}
									}
								}
								JOINT palm.03.L
								{
									OFFSET 0.039230 -0.011402 0.008390
									CHANNELS 6 Xposition Yposition Zposition Yrotation Xrotation Zrotation
									JOINT f_ring.01.L
									{
										OFFSET 0.061796 -0.031470 0.007910
										CHANNELS 3 Xrotation Yrotation Zrotation
										JOINT f_ring.02.L
										{
											OFFSET 0.033092 -0.023401 -0.019127
											CHANNELS 3 Xrotation Yrotation Zrotation
											JOINT f_ring.03.L
											{
												OFFSET 0.021392 -0.015362 -0.017824
												CHANNELS 3 Xrotation Yrotation Zrotation
												End Site
												{
													OFFSET 0.008670 -0.007297 -0.014686
												}
											}
										}
									}
								}
								JOINT palm.04.L
								{
									OFFSET 0.043417 0.002450 0.002889
									CHANNELS 6 Xposition Yposition Zposition Yrotation Xrotation Zrotation
									JOINT f_pinky.01.L
									{
										OFFSET 0.069986 -0.026156 0.003627
										CHANNELS 3 Xrotation Yrotation Zrotation
										JOINT f_pinky.02.L
										{
											OFFSET 0.018520 -0.012813 -0.016429
											CHANNELS 3 Xrotation Yrotation Zrotation
											JOINT f_pinky.03.L
											{
												OFFSET 0.013822 -0.009796 -0.014947
												CHANNELS 3 Xrotation Yrotation Zrotation
												End Site
												{
													OFFSET 0.007238 -0.006103 -0.011657
												}
											}
										}
									}
								}
							}
						}
					}
				}
				JOINT shoulder.R
				{
					OFFSET -0.016662 0.078957 0.057696
					CHANNELS 6 Xposition Yposition Zposition Yrotation Xrotation Zrotation
					JOINT upper_arm.R
					{
						OFFSET -0.176972 -0.020537 -0.095144
						CHANNELS 6 Xposition Yposition Zposition Xrotation Yrotation Zrotation
						JOINT forearm.R
						{
							OFFSET -0.247100 -0.135500 -0.061800
							CHANNELS 3 Xrotation Yrotation Zrotation
							JOINT hand.R
							{
								OFFSET -0.217000 -0.143000 0.039300
								CHANNELS 3 Xrotation Yrotation Zrotation
								JOINT palm.01.R
								{
									OFFSET -0.021773 -0.038278 0.012988
									CHANNELS 6 Xposition Yposition Zposition Yrotation Xrotation Zrotation
									JOINT f_index.01.R
									{
										OFFSET -0.053212 -0.044139 0.008249
										CHANNELS 3 Xrotation Yrotation Zrotation
										JOINT f_index.02.R
										{
											OFFSET -0.036049 -0.024835 -0.010634
											CHANNELS 3 Xrotation Yrotation Zrotation
											JOINT f_index.03.R
											{
												OFFSET -0.021371 -0.014881 -0.010866
												CHANNELS 3 Xrotation Yrotation Zrotation
												End Site
												{
													OFFSET -0.015584 -0.009883 -0.013422
												}
											}
										}
									}
									JOINT thumb.01.R
									{
										OFFSET 0.009113 -0.002381 -0.024211
										CHANNELS 6 Xposition Yposition Zposition Xrotation Yrotation Zrotation
										JOINT thumb.02.R
										{
											OFFSET -0.019694 -0.035097 -0.011088
											CHANNELS 3 Xrotation Yrotation Zrotation
											JOINT thumb.03.R
											{
												OFFSET -0.024867 -0.021762 -0.005168
												CHANNELS 3 Xrotation Yrotation Zrotation
												End Site
												{
													OFFSET -0.016120 -0.013036 -0.001565
												}
											}
										}
									}
								}
								JOINT palm.02.R
								{
									OFFSET -0.032828 -0.025095 0.012286
									CHANNELS 6 Xposition Yposition Zposition Yrotation Xrotation Zrotation
									JOINT f_middle.01.R
									{
										OFFSET -0.055721 -0.038472 0.008040
										CHANNELS 3 Xrotation Yrotation Zrotation
										JOINT f_middle.02.R
										{
											OFFSET -0.038101 -0.027593 -0.015557
											CHANNELS 3 Xrotation Yrotation Zrotation
											JOINT f_middle.03.R
											{
												OFFSET -0.021730 -0.016530 -0.017054
												CHANNELS 3 Xrotation Yrotation Zrotation
												End Site
												{
													OFFSET -0.014096 -0.010608 -0.014293
												}
											}
										}
									}
								}
								JOINT palm.03.R
								{
									OFFSET -0.039192 -0.011488 0.008390
									CHANNELS 6 Xposition Yposition Zposition Yrotation Xrotation Zrotation
									JOINT f_ring.01.R
									{
										OFFSET -0.061839 -0.031387 0.007876
										CHANNELS 3 Xrotation Yrotation Zrotation
										JOINT f_ring.02.R
										{
											OFFSET -0.033068 -0.023437 -0.019125
											CHANNELS 3 Xrotation Yrotation Zrotation
											JOINT f_ring.03.R
											{
												OFFSET -0.021371 -0.015393 -0.017822
												CHANNELS 3 Xrotation Yrotation Zrotation
												End Site
												{
													OFFSET -0.008654 -0.007321 -0.014684
												}
											}
										}
									}
								}
								JOINT palm.04.R
								{
									OFFSET -0.043421 0.002443 0.002845
									CHANNELS 6 Xposition Yposition Zposition Yrotation Xrotation Zrotation
									JOINT f_pinky.01.R
									{
										OFFSET -0.069983 -0.026169 0.003599
										CHANNELS 3 Xrotation Yrotation Zrotation
										JOINT f_pinky.02.R
										{
											OFFSET -0.018501 -0.012842 -0.016428
											CHANNELS 3 Xrotation Yrotation Zrotation
											JOINT f_pinky.03.R
											{
												OFFSET -0.013806 -0.009821 -0.014946
												CHANNELS 3 Xrotation Yrotation Zrotation
												End Site
												{
													OFFSET -0.007226 -0.006121 -0.011655
												}
											}
										}
									}
								}
							}
						}
					}
				}
			}
		}
	}
	JOINT pelvis.L
	{
		OFFSET 0.000000 0.000000 0.000000
		CHANNELS 6 Xposition Yposition Zposition Xrotation Yrotation Zrotation
		JOINT thigh.L
		{
			OFFSET 0.101675 0.001054 -0.000000
			CHANNELS 3 Xrotation Yrotation Zrotation
			JOINT shin.L
			{
				OFFSET 0.000000 -0.534800 0.041000
				CHANNELS 3 Xrotation Yrotation Zrotation
				JOINT foot.L
				{
					OFFSET 0.000000 -0.452000 -0.044800
					CHANNELS 3 Xrotation Yrotation Zrotation
					JOINT toe.L
					{
						OFFSET -0.000000 -0.068500 0.109600
						CHANNELS 3 Xrotation Yrotation Zrotation
						End Site
						{
							OFFSET -0.000000 0.000000 0.067200
						}
					}
				}
				JOINT heel.L
				{
					OFFSET 0.000000 -0.452000 -0.044800
					CHANNELS 3 Xrotation Yrotation Zrotation
					JOINT heel.02.L
					{
						OFFSET -0.038000 -0.085200 0.016200
						CHANNELS 6 Xposition Yposition Zposition Xrotation Yrotation Zrotation
						End Site
						{
							OFFSET 0.080000 -0.000000 0.000000
						}
					}
				}
			}
		}
	}
	JOINT pelvis.R
	{
		OFFSET 0.000000 0.000000 0.000000
		CHANNELS 6 Xposition Yposition Zposition Xrotation Yrotation Zrotation
		JOINT thigh.R
		{
			OFFSET -0.094325 0.001054 0.000000
			CHANNELS 3 Xrotation Yrotation Zrotation
			JOINT shin.R
			{
				OFFSET 0.000000 -0.534800 0.041000
				CHANNELS 3 Xrotation Yrotation Zrotation
				JOINT foot.R
				{
					OFFSET 0.000000 -0.452000 -0.044800
					CHANNELS 3 Xrotation Yrotation Zrotation
					JOINT toe.R
					{
						OFFSET -0.000000 -0.068500 0.109600
						CHANNELS 3 Xrotation Yrotation Zrotation
						End Site
						{
							OFFSET -0.000000 0.000000 0.067200
						}
					}
				}
				JOINT heel.R
				{
					OFFSET 0.000000 -0.452000 -0.044800
					CHANNELS 3 Xrotation Yrotation Zrotation
					JOINT heel.02.R
					{
						OFFSET 0.038000 -0.085200 0.016200
						CHANNELS 6 Xposition Yposition Zposition Xrotation Yrotation Zrotation
						End Site
						{
							OFFSET -0.080000 0.000000 -0.000000
						}
					}
				}
			}
		}
	}
}
MOTION
Frames: 4
Frame Time: 0.041667
-0.017421 0.230311 -0.011663 81.289722 36.606460 84.960559 -0.000003 0.000000 0.000001 -0.000002 -0.000000 0.000000 0.000006 0.000000 0.000000 0.000005 0.000000 -0.000002 0.000924 0.155147 0.009274 -16.136824 0.059518 1.166564 0.019937 0.078966 0.057518 -5.430237 5.336829 45.028784 0.177024 -0.020465 -0.095062 -60.666157 5.566181 -46.818597 -17.652095 -21.082296 -5.710462 -0.000004 0.000001 0.000001 0.021770 -0.038291 0.012954 0.000001 -0.000002 0.000001 -0.000004 -0.000003 0.000003 0.000000 -0.000002 0.000004 0.000002 0.000002 0.000002 -0.009090 -0.002348 -0.024224 -0.000003 -0.000000 0.000003 -0.000000 0.000001 0.000001 -0.000001 -0.000000 -0.000001 0.032823 -0.025104 0.012281 0.000001 -0.000003 0.000002 0.000004 0.000000 -0.000007 -0.000004 -0.000002 0.000003 0.000004 -0.000003 0.000001 0.039230 -0.011402 0.008390 0.000002 -0.000002 0.000003 -0.000000 -0.000001 0.000003 0.000001 0.000003 0.000001 -0.000000 -0.000002 0.000003 0.043417 0.002450 0.002889 -0.000002 0.000001 -0.000003 -0.000002 -0.000004 0.000001 0.000000 0.000002 -0.000001 0.000003 0.000001 0.000001 -0.016662 0.078957 0.057696 7.838441 3.319273 -36.787525 -0.176972 -0.020537 -0.095144 -64.456768 -24.394815 57.913953 -8.253070 8.333665 18.685407 -0.000003 0.000004 0.000001 -0.021773 -0.038278 0.012988 -0.000002 -0.000000 0.000002 -0.000001 0.000005 -0.000003 -0.000001 0.000001 -0.000004 -0.000004 0.000000 -0.000001 0.009113 -0.002381 -0.024211 0.000003 0.000000 -0.000001 -0.000001 0.000001 0.000000 0.000000 -0.000002 0.000001 -0.032828 -0.025095 0.012286 -0.000002 0.000000 0.000004 0.000000 0.000005 -0.000001 0.000003 -0.000001 0.000003 -0.000000 0.000003 -0.000003 -0.039192 -0.011488 0.008390 -0.000002 0.000001 0.000003 -0.000001 0.000008 -0.000002 -0.000000 -0.000003 0.000003 0.000001 0.000001 -0.000001 -0.043421 0.002443 0.002845 0.000003 0.000002 0.000000 -0.000003 0.000006 -0.000001 -0.000002 -0.000004 -0.000002 -0.000004 0.000004 -0.000003 -0.000000 0.000000 0.000000 -1.891169 1.438303 -17.335117 -41.006834 -1.041563 -10.969976 44.220571 0.414033 -4.178984 -0.000002 -0.000002 -0.000001 -0.000001 -0.000001 0.000000 -0.000003 -0.000000 -0.000001 -0.038000 -0.085200 0.016200 0.000001 0.000001 0.000000 -0.000000 0.000000 0.000000 -1.800181 1.410945 -16.103195 -33.299170 0.396762 2.401848 38.164946 2.487024 -25.989503 0.000003 0.000000 -0.000003 0.000001 0.000003 -0.000001 0.000010 -0.000002 -0.000003 0.038000 -0.085200 0.016200 -0.000001 0.000004 0.000000 
-0.018448 0.232050 -0.011564 86.979064 36.511937 79.987717 0.000006 0.000000 -0.000000 0.000005 -0.000001 -0.000001 -0.000000 0.000001 -0.000000 -0.000003 0.000000 0.000001 0.000924 0.155147 0.009274 -15.888640 0.058346 0.874316 0.019937 0.078966 0.057518 -0.166438 5.237040 42.427697 0.177024 -0.020465 -0.095062 -65.165926 6.594932 -47.242328 -16.585241 -18.326106 -8.757634 -0.000003 -0.000000 -0.000000 0.021770 -0.038291 0.012954 -0.000004 -0.000000 0.000001 -0.000002 -0.000002 0.000001 0.000004 0.000001 0.000003 -0.000001 0.000002 -0.000003 -0.009090 -0.002348 -0.024224 0.000001 0.000001 0.000005 -0.000000 -0.000003 -0.000001 0.000001 0.000003 0.000003 0.032823 -0.025104 0.012281 -0.000003 -0.000001 0.000002 -0.000001 -0.000002 -0.000009 0.000000 -0.000003 0.000007 -0.000001 -0.000003 0.000001 0.039230 -0.011402 0.008390 -0.000002 0.000001 0.000004 0.000002 0.000000 -0.000000 0.000003 0.000004 -0.000002 0.000002 -0.000003 0.000003 0.043417 0.002450 0.002889 -0.000002 -0.000001 -0.000002 -0.000001 -0.000006 -0.000002 0.000000 -0.000000 -0.000001 -0.000002 -0.000003 -0.000000 -0.016662 0.078957 0.057696 14.352828 4.271931 -40.618042 -0.176972 -0.020537 -0.095144 -65.151030 -23.864602 57.162273 -5.189222 6.192483 17.113795 0.000000 0.000000 0.000000 -0.021773 -0.038278 0.012988 -0.000001 0.000001 0.000000 -0.000002 -0.000000 0.000000 -0.000003 -0.000002 -0.000006 -0.000000 -0.000002 0.000003 0.009113 -0.002381 -0.024211 0.000000 0.000003 -0.000000 -0.000002 -0.000001 0.000000 0.000002 -0.000000 -0.000001 -0.032828 -0.025095 0.012286 0.000002 0.000003 -0.000003 0.000005 0.000000 0.000001 -0.000000 -0.000001 0.000001 0.000001 0.000008 -0.000007 -0.039192 -0.011488 0.008390 0.000002 0.000004 0.000001 -0.000000 -0.000001 0.000000 -0.000002 -0.000001 -0.000004 -0.000004 0.000002 -0.000003 -0.043421 0.002443 0.002845 -0.000004 0.000003 0.000000 -0.000006 0.000002 -0.000001 0.000001 -0.000003 0.000000 -0.000003 0.000005 -0.000000 0.000000 0.000000 0.000000 -1.875483 1.122257 -13.926128 -49.013352 -1.204303 -12.777514 46.811354 0.546437 -5.519755 0.000002 0.000003 -0.000000 -0.000003 -0.000003 -0.000004 0.000003 -0.000000 0.000002 -0.038000 -0.085200 0.016200 0.000001 0.000002 -0.000002 -0.000000 0.000000 0.000000 -1.796524 1.103556 -12.693477 -39.862651 0.370112 1.651764 39.850076 2.788727 -29.435715 -0.000005 0.000001 -0.000001 0.000002 -0.000001 -0.000004 0.000005 0.000000 0.000002 0.038000 -0.085200 0.016200 0.000003 0.000002 0.000000 
-0.018989 0.230856 -0.038484 -1.950248 -5.816042 90.539833 -0.000001 -0.000000 -0.000000 -0.000000 -0.000000 -0.000000 -0.000001 -0.000000 -0.000000 -0.000000 0.000000 -0.000000 0.000924 0.155147 0.009274 -13.446190 0.031842 -19.722260 0.019937 0.078966 0.057518 -16.598260 0.144267 29.303666 0.177024 -0.020465 -0.095062 -8.371947 14.145140 -56.994483 5.498693 6.358859 -2.664574 0.000001 0.000001 0.000005 0.021770 -0.038291 0.012954 0.000001 -0.000000 0.000005 -0.000001 -0.000001 -0.000000 0.000002 -0.000000 0.000003 -0.000003 0.000001 -0.000000 -0.009090 -0.002348 -0.024224 -0.000001 -0.000001 0.000001 -0.000000 0.000000 0.000001 -0.000000 -0.000000 0.000003 0.032823 -0.025104 0.012281 -0.000001 -0.000000 0.000011 0.000001 0.000000 -0.000005 -0.000003 0.000000 0.000001 -0.000000 -0.000001 0.000001 0.039230 -0.011402 0.008390 0.000000 -0.000000 0.000006 0.000002 0.000001 0.000001 -0.000001 0.000002 -0.000002 0.000004 -0.000005 -0.000000 0.043417 0.002450 0.002889 -0.000001 0.000000 0.000005 -0.000001 -0.000001 -0.000002 -0.000000 -0.000003 -0.000001 -0.000001 -0.000001 0.000000 -0.016662 0.078956 0.057696 -13.304681 2.615717 -24.694423 -0.176972 -0.020537 -0.095144 1.406462 -12.597385 47.705887 0.617297 1.760235 11.061963 0.000002 0.000003 -0.000002 -0.021773 -0.038278 0.012988 0.000001 0.000001 -0.000005 -0.000001 0.000001 0.000001 -0.000002 0.000000 0.000001 0.000001 0.000004 0.000006 0.009114 -0.002381 -0.024211 0.000003 -0.000002 0.000002 -0.000000 0.000001 -0.000005 0.000000 -0.000001 -0.000003 -0.032828 -0.025095 0.012286 0.000002 0.000003 -0.000004 -0.000000 0.000001 -0.000003 -0.000004 -0.000006 0.000001 0.000000 0.000002 -0.000001 -0.039192 -0.011488 0.008390 0.000001 0.000003 -0.000002 -0.000000 -0.000001 0.000002 0.000001 -0.000004 -0.000002 -0.000002 -0.000000 0.000003 -0.043421 0.002443 0.002845 0.000001 0.000001 -0.000001 -0.000003 0.000003 0.000004 -0.000000 -0.000001 -0.000000 0.000003 -0.000002 0.000003 0.000000 0.000000 -0.000000 -1.937166 0.050928 -1.573496 -46.490731 -0.317119 -1.074235 59.111032 -0.599302 6.060156 0.000002 0.000000 -0.000000 -0.000001 -0.000000 0.000001 0.000002 -0.000000 0.000000 -0.038000 -0.085200 0.016200 0.000000 0.000000 0.000000 0.000000 0.000000 -0.000000 -1.893895 0.050189 -0.339357 -58.947791 0.643516 4.212891 75.126583 0.248321 -2.504390 -0.000003 -0.000001 -0.000000 -0.000001 -0.000000 0.000000 0.000005 -0.000001 -0.000000 0.038000 -0.085200 0.016200 -0.000000 -0.000000 -0.000000 
-0.021005 0.238162 -0.009666 92.081742 33.128654 74.845322 0.000001 -0.000000 -0.000001 0.000002 -0.000001 0.000000 -0.000002 0.000000 -0.000001 -0.000001 0.000001 0.000001 0.000924 0.155147 0.009274 -7.223835 0.027914 0.363623 0.019937 0.078966 0.057518 1.130593 4.300296 38.991771 0.177025 -0.020465 -0.095062 -62.211405 10.549293 -50.434995 -14.269138 -15.770627 -9.596880 -0.000004 -0.000001 -0.000004 0.021770 -0.038291 0.012954 0.000002 0.000001 0.000001 -0.000003 -0.000003 0.000003 -0.000001 0.000003 0.000005 -0.000003 0.000002 0.000002 -0.009090 -0.002348 -0.024224 -0.000002 -0.000003 0.000002 -0.000000 -0.000002 0.000003 -0.000000 0.000002 0.000003 0.032823 -0.025104 0.012281 0.000001 0.000002 0.000005 -0.000000 0.000004 -0.000003 -0.000002 0.000003 0.000002 -0.000000 -0.000003 0.000003 0.039230 -0.011402 0.008390 0.000001 0.000001 0.000006 0.000005 0.000002 -0.000002 -0.000001 0.000004 0.000001 0.000001 -0.000002 0.000003 0.043417 0.002450 0.002889 -0.000002 0.000001 0.000002 -0.000002 -0.000001 -0.000002 0.000001 -0.000003 0.000001 -0.000002 0.000000 -0.000003 -0.016662 0.078957 0.057696 18.883822 3.444340 -38.689460 -0.176972 -0.020537 -0.095144 -71.068815 -26.912687 56.142905 6.142679 -4.874228 10.582640 -0.000001 0.000003 0.000003 -0.021773 -0.038278 0.012988 0.000001 -0.000000 0.000000 -0.000001 0.000004 -0.000006 -0.000001 -0.000002 -0.000006 0.000001 0.000000 0.000004 0.009114 -0.002381 -0.024211 0.000002 -0.000003 -0.000005 0.000001 -0.000002 0.000000 0.000003 0.000001 -0.000008 -0.032828 -0.025095 0.012286 0.000002 -0.000003 0.000001 0.000002 0.000003 0.000001 -0.000000 -0.000005 -0.000003 -0.000004 0.000006 -0.000005 -0.039192 -0.011488 0.008390 0.000003 0.000000 -0.000000 -0.000000 0.000001 0.000000 0.000002 0.000002 -0.000000 0.000001 -0.000000 0.000002 -0.043421 0.002443 0.002845 0.000002 -0.000004 0.000002 -0.000004 0.000003 -0.000001 0.000004 -0.000002 -0.000002 -0.000001 0.000001 -0.000001 -0.000000 0.000000 0.000000 -1.932802 1.192448 -14.545562 -58.258180 -1.077874 -10.686139 56.111121 0.566885 -5.727091 0.000002 0.000001 -0.000004 0.000003 -0.000001 -0.000001 0.000005 -0.000002 -0.000003 -0.038000 -0.085200 0.016200 0.000002 -0.000001 -0.000004 0.000000 0.000000 0.000000 -1.849552 1.171772 -13.313098 -48.846890 0.518357 3.055219 47.627264 2.645749 -27.788502 0.000003 0.000000 0.000006 -0.000001 -0.000002 0.000000 0.000003 0.000000 0.000003 0.038000 -0.085200 0.016200 -0.000002 -0.000001 -0.000003 
